<svg xmlns="http://www.w3.org/2000/svg" width="375" height="331" fill="none">
  <rect width="223" height="223" fill="#2D2E40" opacity=".08" rx="111.5" transform="matrix(1 0 0 -1 77 276)" />
  <rect width="251" height="251" x=".5" y="-.5" stroke="#2D2E40" opacity=".5" rx="125.5"
    transform="matrix(1 0 0 -1 62 288)" />
  <rect width="325" height="325" x=".5" y="-.5" stroke="#2D2E40" opacity=".25" rx="162.5"
    transform="matrix(1 0 0 -1 25 325)" />
  <g filter="url(#editormobile__a)">
    <rect width="326" height="217" x="25" y="54" fill="url(#editormobile__b)" rx="5" />
  </g>
  <mask id="editormobile__c" width="326" height="217" x="25" y="54" maskUnits="userSpaceOnUse"
    style="mask-type:luminance">
    <rect width="326" height="217" x="25" y="54" fill="#fff" rx="5" />
  </mask>
  <g mask="url(#editormobile__c)">
    <path fill="#2D2E40" d="M25 120.525a3 3 0 0 1 3-3h320a3 3 0 0 1 3 3V268a3 3 0 0 1-3 3H28a3 3 0 0 1-3-3V120.525Z" />
    <rect width="68.95" height="69.707" x="70.967" y="78.246" fill="#fff" rx="3" />
    <ellipse cx="105.442" cy="113.402" fill="#2D2E40" rx="19.959" ry="20.003" />
    <rect width="153.625" height="165.478" x="151.408" y="78.246" fill="#fff" rx="3" />
  </g>
  <path stroke="url(#editormobile__d)" stroke-linecap="round" stroke-width="8"
    d="M131 198s35.807-56.091 52.964-60.62c17.158-4.529 12.039 42.374 36.744 36.938s27.717-52.994 46.403-55.234c18.685-2.241 28.571 41.257 36.733 45.264 8.162 4.008 20.156-17.332 20.156-17.332" />
  <defs>
    <linearGradient id="editormobile__b" x1="-138" x2="62.189" y1="162.5" y2="463.245" gradientUnits="userSpaceOnUse">
      <stop stop-color="#FF8F71" />
      <stop offset="1" stop-color="#FF3E55" />
    </linearGradient>
    <linearGradient id="editormobile__d" x1="34.5" x2="89.893" y1="158.5" y2="293.826" gradientUnits="userSpaceOnUse">
      <stop stop-color="#FF8F71" />
      <stop offset="1" stop-color="#FF3E55" />
    </linearGradient>
    <filter id="editormobile__a" width="406" height="297" x="-15" y="34" color-interpolation-filters="sRGB"
      filterUnits="userSpaceOnUse">
      <feFlood flood-opacity="0" result="BackgroundImageFix" />
      <feColorMatrix in="SourceAlpha" result="hardAlpha" values="0 0 0 0 0 0 0 0 0 0 0 0 0 0 0 0 0 0 127 0" />
      <feOffset dy="20" />
      <feGaussianBlur stdDeviation="20" />
      <feColorMatrix values="0 0 0 0 0.421822 0 0 0 0 0.554338 0 0 0 0 0.89371 0 0 0 0.243444 0" />
      <feBlend in2="BackgroundImageFix" result="effect1_dropShadow_0_96" />
      <feBlend in="SourceGraphic" in2="effect1_dropShadow_0_96" result="shape" />
    </filter>
  </defs>
</svg>